<svg width="239" height="360" viewBox="0 0 239 360" fill="none" xmlns="http://www.w3.org/2000/svg">
<path d="M239 119.5C239 144.35 231.41 167.44 218.42 186.56L218.4 186.59L118.8 359.4L20.59 186.59V186.56C7.59 167.44 0 144.35 0 119.5C0 53.5 53.5 0 119.5 0C185.5 0 239 53.5 239 119.5Z" fill="#297265"/>
<path fill-rule="evenodd" clip-rule="evenodd" d="M119.5 56C87.1913 56 61 82.1913 61 114.5C61 146.809 87.1913 173 119.5 173C151.809 173 178 146.809 178 114.5C178 82.1913 151.809 56 119.5 56ZM48 114.5C48 75.0116 80.0116 43 119.5 43C158.988 43 191 75.0116 191 114.5C191 153.988 158.988 186 119.5 186C80.0116 186 48 153.988 48 114.5ZM119.5 82C123.09 82 126 84.9101 126 88.5V108H145.5C149.09 108 152 110.91 152 114.5C152 118.09 149.09 121 145.5 121H126V140.5C126 144.09 123.09 147 119.5 147C115.91 147 113 144.09 113 140.5V121H93.5C89.9101 121 87 118.09 87 114.5C87 110.91 89.9101 108 93.5 108H113V88.5C113 84.9101 115.91 82 119.5 82Z" fill="#F5F5F5"/>
</svg>
