<svg width="239" height="360" viewBox="0 0 239 360" fill="none" xmlns="http://www.w3.org/2000/svg">
<g clip-path="url(#clip0_476_826)">
<path d="M239 119.5C239 144.35 231.41 167.44 218.42 186.56L218.4 186.59L118.8 359.4L20.59 186.59V186.56C7.59 167.44 0 144.35 0 119.5C0 53.5 53.5 0 119.5 0C185.5 0 239 53.5 239 119.5Z" fill="#CCDD89"/>
<path d="M136.41 57.56C136.28 57.46 116.33 71.21 116.94 88.18C117.98 116.96 176.97 122.05 182.94 159.29C185.13 172.97 178.27 183.79 176.62 186.45C155.62 220.21 82.92 225.48 62.19 195.22C48.82 175.7 56.22 140.16 73.82 132.01C90.24 124.41 115.28 131.42 118.92 143.26C123.66 158.69 90.86 179.11 92.03 180.4C93.3 181.8 130.06 161.56 126.86 143.6C125.22 134.38 114.35 133.1 100.37 121.89C81.82 107 62.44 78.32 68.89 58.31C77.8 30.64 138.26 12.82 166 38.31C187.3 57.89 186.81 100.82 170.05 110.16C155.55 118.24 125.16 102.9 122.18 85.95C119.69 71.78 136.54 57.67 136.42 57.57L136.41 57.56Z" fill="white"/>
</g>
<defs>
<clipPath id="clip0_476_826">
<rect width="239" height="359.4" fill="white"/>
</clipPath>
</defs>
</svg>
